<mxfile host="app.diagrams.net" modified="2023-06-06T09:48:22.538Z" agent="Mozilla/5.0 (Windows NT 10.0; Win64; x64) AppleWebKit/537.36 (KHTML, like Gecko) Chrome/113.0.0.0 Safari/537.36" etag="lQtZv2XtTfVfIRQ_q6OU" version="21.3.7" type="device">
  <diagram name="Page-1" id="a6Xv2rL9BdAXXFQYNNyy">
    <mxGraphModel dx="1434" dy="796" grid="1" gridSize="10" guides="1" tooltips="1" connect="1" arrows="1" fold="1" page="1" pageScale="1" pageWidth="827" pageHeight="1169" math="0" shadow="0">
      <root>
        <mxCell id="0" />
        <mxCell id="1" parent="0" />
        <mxCell id="LDOr0QlsRCQQZnP12xUZ-9" value="&lt;b&gt;&lt;br&gt;&lt;br&gt;&lt;br&gt;&lt;br&gt;&lt;br&gt;&lt;br&gt;&lt;br&gt;Render&lt;br&gt;&lt;/b&gt;" style="ellipse;whiteSpace=wrap;html=1;aspect=fixed;" vertex="1" parent="1">
          <mxGeometry x="414" y="30" width="170" height="170" as="geometry" />
        </mxCell>
        <mxCell id="LDOr0QlsRCQQZnP12xUZ-5" value="&lt;br&gt;&lt;br&gt;&lt;br&gt;&lt;br&gt;ip : 34.79.25.79&lt;br&gt;port : 3306&lt;br&gt;&lt;br&gt;&lt;b&gt;GCP&lt;/b&gt;" style="ellipse;whiteSpace=wrap;html=1;aspect=fixed;" vertex="1" parent="1">
          <mxGeometry x="30" y="380" width="170" height="170" as="geometry" />
        </mxCell>
        <mxCell id="LDOr0QlsRCQQZnP12xUZ-1" value="DB" style="shape=cylinder3;whiteSpace=wrap;html=1;boundedLbl=1;backgroundOutline=1;size=15;" vertex="1" parent="1">
          <mxGeometry x="70" y="390" width="90" height="70" as="geometry" />
        </mxCell>
        <mxCell id="LDOr0QlsRCQQZnP12xUZ-3" value="Frontend" style="rounded=0;whiteSpace=wrap;html=1;" vertex="1" parent="1">
          <mxGeometry x="454" y="50" width="90" height="50" as="geometry" />
        </mxCell>
        <mxCell id="LDOr0QlsRCQQZnP12xUZ-8" value="&lt;br&gt;&lt;br&gt;&lt;br&gt;&lt;br&gt;ip : 18.192.57.171&lt;br&gt;port : 443&lt;br&gt;&lt;br&gt;&lt;br&gt;&lt;b&gt;AWS&lt;/b&gt;" style="ellipse;whiteSpace=wrap;html=1;aspect=fixed;" vertex="1" parent="1">
          <mxGeometry x="414" y="380" width="170" height="170" as="geometry" />
        </mxCell>
        <mxCell id="LDOr0QlsRCQQZnP12xUZ-10" value="Backend" style="rounded=0;whiteSpace=wrap;html=1;" vertex="1" parent="1">
          <mxGeometry x="454" y="400" width="100" height="50" as="geometry" />
        </mxCell>
        <mxCell id="LDOr0QlsRCQQZnP12xUZ-11" value="Actor" style="shape=umlActor;verticalLabelPosition=bottom;verticalAlign=top;html=1;outlineConnect=0;" vertex="1" parent="1">
          <mxGeometry x="80" y="70" width="30" height="60" as="geometry" />
        </mxCell>
        <mxCell id="LDOr0QlsRCQQZnP12xUZ-16" value="" style="endArrow=classic;html=1;rounded=0;" edge="1" parent="1">
          <mxGeometry relative="1" as="geometry">
            <mxPoint x="140" y="80" as="sourcePoint" />
            <mxPoint x="410" y="80" as="targetPoint" />
          </mxGeometry>
        </mxCell>
        <mxCell id="LDOr0QlsRCQQZnP12xUZ-17" value="Requête" style="edgeLabel;resizable=0;html=1;align=center;verticalAlign=middle;" connectable="0" vertex="1" parent="LDOr0QlsRCQQZnP12xUZ-16">
          <mxGeometry relative="1" as="geometry" />
        </mxCell>
        <mxCell id="LDOr0QlsRCQQZnP12xUZ-18" value="" style="endArrow=classic;html=1;rounded=0;" edge="1" parent="1">
          <mxGeometry relative="1" as="geometry">
            <mxPoint x="400" y="114.5" as="sourcePoint" />
            <mxPoint x="140" y="115" as="targetPoint" />
          </mxGeometry>
        </mxCell>
        <mxCell id="LDOr0QlsRCQQZnP12xUZ-19" value="Réponse" style="edgeLabel;resizable=0;html=1;align=center;verticalAlign=middle;" connectable="0" vertex="1" parent="LDOr0QlsRCQQZnP12xUZ-18">
          <mxGeometry relative="1" as="geometry" />
        </mxCell>
        <mxCell id="LDOr0QlsRCQQZnP12xUZ-20" value="" style="endArrow=classic;html=1;rounded=0;" edge="1" parent="1">
          <mxGeometry relative="1" as="geometry">
            <mxPoint x="540" y="200" as="sourcePoint" />
            <mxPoint x="540" y="360" as="targetPoint" />
          </mxGeometry>
        </mxCell>
        <mxCell id="LDOr0QlsRCQQZnP12xUZ-21" value="Requête" style="edgeLabel;resizable=0;html=1;align=center;verticalAlign=middle;" connectable="0" vertex="1" parent="LDOr0QlsRCQQZnP12xUZ-20">
          <mxGeometry relative="1" as="geometry" />
        </mxCell>
        <mxCell id="LDOr0QlsRCQQZnP12xUZ-22" value="" style="endArrow=classic;html=1;rounded=0;" edge="1" parent="1">
          <mxGeometry relative="1" as="geometry">
            <mxPoint x="400" y="449" as="sourcePoint" />
            <mxPoint x="200" y="449" as="targetPoint" />
          </mxGeometry>
        </mxCell>
        <mxCell id="LDOr0QlsRCQQZnP12xUZ-23" value="Requête" style="edgeLabel;resizable=0;html=1;align=center;verticalAlign=middle;" connectable="0" vertex="1" parent="LDOr0QlsRCQQZnP12xUZ-22">
          <mxGeometry relative="1" as="geometry" />
        </mxCell>
        <mxCell id="LDOr0QlsRCQQZnP12xUZ-24" value="" style="endArrow=classic;html=1;rounded=0;" edge="1" parent="1">
          <mxGeometry relative="1" as="geometry">
            <mxPoint x="490" y="360" as="sourcePoint" />
            <mxPoint x="490" y="210" as="targetPoint" />
          </mxGeometry>
        </mxCell>
        <mxCell id="LDOr0QlsRCQQZnP12xUZ-25" value="Réponse" style="edgeLabel;resizable=0;html=1;align=center;verticalAlign=middle;" connectable="0" vertex="1" parent="LDOr0QlsRCQQZnP12xUZ-24">
          <mxGeometry relative="1" as="geometry" />
        </mxCell>
        <mxCell id="LDOr0QlsRCQQZnP12xUZ-26" value="" style="endArrow=classic;html=1;rounded=0;" edge="1" parent="1">
          <mxGeometry relative="1" as="geometry">
            <mxPoint x="210" y="490" as="sourcePoint" />
            <mxPoint x="400" y="490" as="targetPoint" />
          </mxGeometry>
        </mxCell>
        <mxCell id="LDOr0QlsRCQQZnP12xUZ-27" value="Réponse" style="edgeLabel;resizable=0;html=1;align=center;verticalAlign=middle;" connectable="0" vertex="1" parent="LDOr0QlsRCQQZnP12xUZ-26">
          <mxGeometry relative="1" as="geometry" />
        </mxCell>
      </root>
    </mxGraphModel>
  </diagram>
</mxfile>
